<svg width="120" height="120" viewBox="0 0 120 120" fill="none" xmlns="http://www.w3.org/2000/svg">
<rect width="120" height="120" fill="#248277"/>
<path d="M52.12 45.92L44.8 74H36.52L32.04 55.52L27.4 74H19.12L12 45.92H19.32L23.36 66.36L28.36 45.92H35.88L40.68 66.36L44.76 45.92H52.12ZM75.7503 45.92V51.4H68.3103V74H61.4703V51.4H54.0303V45.92H75.7503ZM78.0231 59.92C78.0231 57.1467 78.6231 54.68 79.8231 52.52C81.0231 50.3333 82.6898 48.64 84.8231 47.44C86.9831 46.2133 89.4231 45.6 92.1431 45.6C95.4765 45.6 98.3298 46.48 100.703 48.24C103.076 50 104.663 52.4 105.463 55.44H97.9431C97.3831 54.2667 96.5831 53.3733 95.5431 52.76C94.5298 52.1467 93.3698 51.84 92.0631 51.84C89.9565 51.84 88.2498 52.5733 86.9431 54.04C85.6365 55.5067 84.9831 57.4667 84.9831 59.92C84.9831 62.3733 85.6365 64.3333 86.9431 65.8C88.2498 67.2667 89.9565 68 92.0631 68C93.3698 68 94.5298 67.6933 95.5431 67.08C96.5831 66.4667 97.3831 65.5733 97.9431 64.4H105.463C104.663 67.44 103.076 69.84 100.703 71.6C98.3298 73.3333 95.4765 74.2 92.1431 74.2C89.4231 74.2 86.9831 73.6 84.8231 72.4C82.6898 71.1733 81.0231 69.48 79.8231 67.32C78.6231 65.16 78.0231 62.6933 78.0231 59.92Z" fill="white"/>
</svg>
